<svg width="21" height="20" viewBox="0 0 21 20" fill="none" xmlns="http://www.w3.org/2000/svg">
<path fill-rule="evenodd" clip-rule="evenodd" d="M6.5 10C6.5 11.104 5.604 12 4.5 12C3.396 12 2.5 11.104 2.5 10C2.5 8.896 3.396 8 4.5 8C5.604 8 6.5 8.896 6.5 10ZM12.5 10C12.5 11.104 11.604 12 10.5 12C9.396 12 8.5 11.104 8.5 10C8.5 8.896 9.396 8 10.5 8C11.604 8 12.5 8.896 12.5 10ZM18.5 10C18.5 11.104 17.604 12 16.5 12C15.396 12 14.5 11.104 14.5 10C14.5 8.896 15.396 8 16.5 8C17.604 8 18.5 8.896 18.5 10Z" fill="#5C5F62"/>
</svg>
