<svg width="21" height="20" viewBox="0 0 21 20" fill="none" xmlns="http://www.w3.org/2000/svg">
<path d="M3.93868 15.5617C3.65778 15.2804 3.5 14.8992 3.5 14.5017C3.5 14.1042 3.65778 13.7229 3.93868 13.4417L10.7307 6.64868L13.8517 9.76868L7.05968 16.5627C6.92038 16.7021 6.75498 16.8126 6.57293 16.8881C6.39088 16.9635 6.19574 17.0024 5.99868 17.0024C5.80162 17.0024 5.60648 16.9635 5.42443 16.8881C5.24238 16.8126 5.07698 16.7021 4.93768 16.5627L3.93768 15.5627L3.93868 15.5617ZM15.2667 8.35568L17.0587 6.56168C17.1981 6.42238 17.3086 6.25698 17.3841 6.07493C17.4595 5.89288 17.4984 5.69774 17.4984 5.50068C17.4984 5.30362 17.4595 5.10848 17.3841 4.92643C17.3086 4.74438 17.1981 4.57898 17.0587 4.43968L16.0587 3.43968C15.9194 3.30029 15.754 3.18971 15.5719 3.11427C15.3899 3.03883 15.1947 3 14.9977 3C14.8006 3 14.6055 3.03883 14.4234 3.11427C14.2414 3.18971 14.076 3.30029 13.9367 3.43968L12.1437 5.23268L15.2657 8.35468L15.2667 8.35568ZM13.4987 12.0017C14.4987 12.0017 15.4987 11.0017 15.4987 10.0017C15.4987 11.0017 16.4987 12.0017 17.4987 12.0017C16.4987 12.0017 15.4987 13.0017 15.4987 14.0017C15.4987 13.0017 14.4987 12.0017 13.4987 12.0017ZM6.49868 5.00168C7.49868 5.00168 8.49868 4.00168 8.49868 3.00168C8.49868 4.00168 9.49868 5.00168 10.4987 5.00168C9.49868 5.00168 8.49868 6.00168 8.49868 7.00168C8.49868 6.00168 7.49868 5.00168 6.49868 5.00168Z" fill="#5C5F62"/>
</svg>
